<svg xmlns="http://www.w3.org/2000/svg" width="26" height="18" viewBox="0 0 26 18"><g id="cursor_matchprop" fill="none" fill-rule="evenodd" stroke="none" stroke-width="1"><path id="路径" fill="#FFF" fill-rule="nonzero" d="M24.5 0a1.5 1.5 0 0 1 1.493 1.356L26 1.5v5a1.5 1.5 0 0 1-1.356 1.493L24.5 8h-3.824l-.926.907V9h.75v5.625l-5 3.203V9h1v-.597L16.1 8h-4.6a1.5 1.5 0 0 1-1.473-1.215l-.02-.14L10 6.5v-5A1.5 1.5 0 0 1 11.356.007L11.5 0z"/><path id="形状结合" fill="#333" d="M24.5 1a.5.5 0 0 1 .5.5v5a.5.5 0 0 1-.5.5h-4.231L18.75 8.488V10h.75v4.078L16.5 16v-6h1V8h.008l-.001-.001L18.525 7H11.5a.5.5 0 0 1-.5-.5v-5a.5.5 0 0 1 .5-.5zm-.75 1.25h-11.5v3.5h11.5z"/><path id="形状结合" fill="#333" stroke="#FFF" d="M2 .5H.5v2H2c.414 0 .79.168 1.06.44.272.27.44.646.44 1.06v3.5h-1v2h1V13c0 .414-.168.79-.44 1.06-.27.272-.646.44-1.06.44H.5v2H2c.98 0 1.865-.403 2.5-1.051A3.5 3.5 0 0 0 7 16.5h1.5v-1.998l-1.628-.007A1.496 1.496 0 0 1 5.5 13V9.5h1v-2h-1l.005-3.63A1.496 1.496 0 0 1 7 2.5h1.5V.497l-1.725.01c-.89.057-1.69.446-2.274 1.044A3.5 3.5 0 0 0 2 .5Z"/></g></svg>